<svg xmlns="http://www.w3.org/2000/svg" xmlns:xlink="http://www.w3.org/1999/xlink" id="Layer_1" x="0" y="0" version="1.1" viewBox="0 0 888 119.5" xml:space="preserve" style="enable-background:new 0 0 888 119.5"><style type="text/css">.st0{fill:#327eb7}.st1{fill:#ff667f}</style><switch><g><path d="M98.9,60.2c0,8.2-1.5,15.7-4.6,22.9c-3.3,7.3-7.4,13.5-12.8,19c-5.3,5.3-11.7,9.7-19,12.8 c-7.1,3.1-14.9,4.8-23,4.8H0l19.8-19.9h19.8c5.5,0,10.7-1,15.4-3c4.8-2.1,9.1-4.9,12.6-8.6c3.6-3.7,6.4-7.9,8.5-12.6 c2.1-4.9,3.1-10,3.1-15.3c0-5.3-1-10.4-3.1-15.3c-2.1-4.8-4.9-8.9-8.6-12.6c-3.6-3.6-7.9-6.5-12.6-8.6c-4.8-1.9-10-3-15.3-3H19.8 L0,0.8h39.5c8.2,0,15.7,1.6,23,4.8C69.7,8.7,76,13,81.4,18.3c5.5,5.5,9.7,11.7,12.9,19C97.4,44.5,98.9,52,98.9,60.2z" class="st0"/><path d="M147.1,76.4v-0.1l-33.7,43.4H88l46.6-59.4L88,0.8h25.4l33.7,43.4l33.9-43.4H206l-46.3,59.4L147.1,76.4z M147.1,76.4l-33.7,43.2l33.7-43.4V76.4z" class="st0"/><path d="M314.6,70.2c0,13.7-4.8,25.4-14.6,35c-9.7,9.7-21.5,14.4-35,14.4c-13.5,0-25.2-4.8-34.9-14.4 s-14.4-21.5-14.4-35V0.8h19.8v69.4c0,8.2,2.8,15.1,8.5,20.8c5.8,5.9,12.9,8.8,21.1,8.8c8.2,0,15.1-3,20.9-8.8 c5.8-5.8,8.9-12.8,8.9-20.8H314.6z" class="st0"/><path d="M335.2,60.2l59.4,59.4h-27.9l-51.4-51.1l-8.3-8.2l8.3-8.3l51.4-51.2h27.9L335.2,60.2z M315.3,52l51.4-51.2 L315.3,52z M366.7,119.6l-51.4-51.1L366.7,119.6z" class="st1"/><path d="M417.3,70.2c-9.7,0-17.8-3.4-24.5-10.1c-6.7-6.8-10.1-15-10.1-24.7c0-9.5,3.4-17.5,10.1-24.4 c6.7-6.8,14.9-10.2,24.5-10.2v19.9c-2.1,0-4,0.3-5.8,1c-1.9,0.7-3.4,1.8-4.9,3.3c-1.3,1.3-2.4,3-3.1,4.8c-0.7,1.8-1,3.7-1,5.6 c0,4.2,1.3,7.6,4.2,10.5c3,3,6.4,4.5,10.7,4.5h29.6c9.7,0,17.8,3.4,24.5,10.1c6.8,6.8,10.2,15,10.2,24.5s-3.4,17.7-10.2,24.5 c-6.7,6.7-14.9,10.1-24.5,10.1V99.7c2.1,0,4-0.3,5.8-1c1.9-0.7,3.6-1.8,4.9-3.1c1.3-1.3,2.4-2.8,3.1-4.8c0.7-1.8,1.2-3.7,1.2-5.8 c0-4-1.6-7.4-4.5-10.4c-3-3-6.4-4.5-10.5-4.5H417.3z" class="st0"/><path d="M581.6,0.8v118.8h-19.8V70.2h-59.4v49.5h-19.8V70.2l19.8-19.9h59.4V0.8H581.6z" class="st0"/><path d="M624.5,99.7l-10.1,19.9h-22L651.8,0.8l39.7,79.3h-22.3l-17.4-34.9l-17.5,34.9L624.5,99.7z M711.2,119.6h-22.1 l-9.8-19.8h22L711.2,119.6z" class="st0"/><rect width="19.8" height="47.4" x="295.6" y=".1" class="st0"/><g><path d="M852.6,48.7c-19.6,0-35.4,15.8-35.4,35.4c0,19.6,15.8,35.4,35.4,35.4S888,103.7,888,84.1 C888,64.6,872.2,48.7,852.6,48.7z M852.6,103.3c-10.6,0-19.2-8.6-19.2-19.2S842,65,852.6,65s19.2,8.6,19.2,19.2 S863.2,103.3,852.6,103.3z" class="st0"/><circle cx="853.5" cy="33.9" r="11.3" class="st1"/><path d="M886.8,33.4c0,0.3,0,0.7,0,1v0c0,0,0,0,0,0v0c0,0.6-0.1,1.2-0.1,1.8v0c-0.4,2.1-1.7,3.9-3.4,5 c-1.1,0.7-2.5,1.1-3.9,1.2c0,0-0.1,0-0.1,0c-1.5,0-2.9-0.4-4-1.2c-2.1-1.3-3.5-3.7-3.5-6.4c0-0.2,0-0.4,0-0.6l0,0 c0-0.3,0-0.6,0-0.9c0-10.5-8.9-19-19.6-18.2c-8.9,0.6-16.2,7.8-16.9,16.8c-0.1,1-0.1,2,0,2.9h-0.1c0,2.7-1.4,5-3.5,6.4 c-0.7,0.4-1.5,0.8-2.3,1c-0.5,0.1-1.1,0.2-1.7,0.2c-1.5,0-2.9-0.4-4-1.2c-1.8-1.1-3-2.9-3.4-5c-0.1-0.6-0.1-1.2-0.1-1.8 c0,0,0,0,0,0c0-0.3,0-0.7,0-1C820.1,14.9,835,0,853.5,0C871.9,0,886.8,14.9,886.8,33.4z" class="st0"/></g><polygon points="768 27.3 782.5 27.3 782.5 119.5 798.7 119.5 798.7 27.3 798.7 0" class="st0"/><polygon points="740 27.4 755.2 1 724.7 1" class="st0"/></g></switch></svg>